Coordinates
version=1
nRows=15
nColumns=19
inDegrees=yes

Units are S.I. units (second, meters, Newtons, ...)
If the header above contains a line with 'inDegrees', this indicates whether rotational values are in degrees (yes) or radians (no).

endheader
time	pelvis_to_ground_rx	pelvis_to_ground_ry	pelvis_to_ground_rz	pelvis_to_ground_tx	pelvis_to_ground_ty	pelvis_to_ground_tz	left_hip_abduction	left_hip_rotation	left_hip_flexion	left_knee_flexion	left_ankle_flexion	left_subtalar_angle	right_hip_abduction	right_hip_rotation	right_hip_flexion	right_knee_flexion	right_ankle_flexion	right_subtalar_angle
      1.94000000	     96.32224933	      4.52625574	     -4.44284465	      0.30937262	     -0.67339265	      0.73071538	    -15.45693256	     -5.05998861	     16.37517589	    -27.65117899	      4.24363298	    -11.08491279	      2.72364312	    -16.23776743	     25.07667611	    -66.06544644	     -5.42156602	    -11.08828037
      1.95000000	     96.03827820	      5.04674208	     -4.15409124	      0.31924086	     -0.67322186	      0.73205988	    -15.06970850	     -5.66355694	     15.03742256	    -27.37407359	      4.23303935	    -10.93362526	      3.02962866	    -15.79461565	     26.47332222	    -65.95893932	     -4.58369818	    -11.84863928
      1.96000000	     95.80319621	      5.62205127	     -3.81474886	      0.32899811	     -0.67316251	      0.73303204	    -14.75572279	     -6.39746002	     13.72940342	    -27.28733774	      4.27607415	    -10.83913361	      3.19142417	    -15.36797631	     27.77060692	    -65.66499846	     -4.37557285	    -12.05685625
      1.97000000	     95.64600609	      6.21888253	     -3.50626108	      0.33867971	     -0.67319350	      0.73363748	    -14.54464711	     -7.06933563	     12.53555655	    -27.34613511	      4.36275517	    -10.78494942	      3.19582546	    -14.94364862	     29.05005531	    -65.18669781	     -4.03087669	    -12.40228940
      1.98000000	     95.53823932	      6.87586741	     -3.20132789	      0.34829140	     -0.67336687	      0.73390237	    -14.39517977	     -7.63800580	     11.43254788	    -27.55083254	      4.47464086	    -10.74301591	      3.07722617	    -14.56527275	     30.25867954	    -64.48707456	     -3.73890829	    -12.70533958
      1.99000000	     95.51322410	      7.54411232	     -2.91352507	      0.35778768	     -0.67361002	      0.73377812	    -14.34474931	     -8.08335778	     10.42969872	    -27.89802085	      4.63604978	    -10.70229883	      2.80575730	    -14.20254647	     31.43358941	    -63.61172739	     -3.48384714	    -12.98682445
      2.00000000	     95.52389778	      8.24145699	     -2.66247480	      0.36725263	     -0.67397225	      0.73337083	    -14.31771115	     -8.36867839	      9.51903024	    -28.31508434	      4.99591437	    -10.58536559	      2.44417450	    -13.86781719	     32.54696274	    -62.48089609	     -3.24398607	    -13.32060838
      2.01000000	     95.58385677	      8.99796802	     -2.44525605	      0.37667786	     -0.67442410	      0.73269326	    -14.32512449	     -8.61736860	      8.65960256	    -28.76412739	      5.07935429	    -10.50934903	      1.99097695	    -13.66005825	     33.59635175	    -61.10034420	     -3.24900256	    -13.30719940
      2.02000000	     95.73074724	      9.72201597	     -2.34808499	      0.38607689	     -0.67490372	      0.73179426	    -14.40005307	     -8.81942091	      7.90458305	    -29.18373851	      5.73197303	    -10.13438970	      1.42403124	    -13.43281533	     34.65410659	    -59.46564206	     -3.39378880	    -13.08960330
      2.03000000	     95.90586838	     10.48697946	     -2.26057497	      0.39551347	     -0.67545762	      0.73069413	    -14.48636196	     -9.04142563	      7.13111263	    -29.57426277	      5.86192626	     -9.96935041	      0.80295303	    -13.32081996	     35.57468039	    -57.54829351	     -3.45638837	    -12.93950978
      2.04000000	     96.08770083	     11.19727781	     -2.26568820	      0.40503569	     -0.67604637	      0.72947978	    -14.54307844	     -9.15929179	      6.43345137	    -29.90904646	      6.36655126	     -9.64510555	      0.17298809	    -13.16983513	     36.41996882	    -55.31978911	     -3.82333802	    -12.32770616
      2.05000000	     96.27531021	     11.94875370	     -2.28664437	      0.41468840	     -0.67668668	      0.72814166	    -14.59832989	     -9.44477067	      5.68402654	    -30.18927297	      6.58106411	     -9.49615448	     -0.45712199	    -13.14446318	     37.09139078	    -52.80628773	     -4.01357994	    -11.99199994
      2.06000000	     96.45037169	     12.59543627	     -2.32456230	      0.42450982	     -0.67732829	      0.72669588	    -14.61327175	     -9.53095240	      4.97269946	    -30.48302527	      7.50641735	     -8.59886124	     -1.07133852	    -13.01425105	     37.58371055	    -50.03095850	     -4.25898230	    -10.56621394
      2.07000000	     96.62994258	     13.21397661	     -2.41515027	      0.43455868	     -0.67798236	      0.72520773	    -14.63494488	     -9.85832866	      4.20317353	    -30.65494565	      7.78688925	     -8.59694729	     -1.67563307	    -12.86442123	     37.90153833	    -47.00869604	     -4.96369255	     -9.85938325
      2.08000000	     96.78584094	     13.78936885	     -2.46611314	      0.44489289	     -0.67863864	      0.72363769	    -14.63560945	    -10.21183249	      3.36118159	    -30.81661003	      8.12301081	     -8.57926306	     -2.24164554	    -12.68798816	     37.96483235	    -43.82575458	     -5.72873987	     -9.02140572
